# xmcd CD database file
#
# Track frame offsets:
#	150
#	17507
#	30427
#	43670
#	57482
#	72022
#	84860
#	97600
#	110442
#	131125
#	146807
#	160445
#	179300
#	197015
#	208905
#	225762
#
# Disc length: 3195 seconds
#
# Revision: 0
# Processed by: cddbd v1.5.1PL0 Copyright (c) Steve Scherf et al.
# Submitted via: CDex 1.51
#
DISCID=ce0c7910
DTITLE=Horace Silver - Horace Silver Trio - Art Blakey - Sabu
DYEAR=1953
DGENRE=Jazz
TTITLE0=Horoscope
TTITLE1=Safari
TTITLE2=Thou Swell
TTITLE3=Quicksilver
TTITLE4=Ecaroh
TTITLE5=Yeah
TTITLE6=Knowledge Box
TTITLE7=Prelude To A Kiss
TTITLE8=Message From Kenya
TTITLE9=Opus De Funk
TTITLE10=Day In, Day Out
TTITLE11=Nothing But The Soul
TTITLE12=I Remember You
TTITLE13=Silverware
TTITLE14=How About You
TTITLE15=Buhaina
EXTD=YEAR: 1953
EXTT0=
EXTT1=
EXTT2=
EXTT3=
EXTT4=
EXTT5=
EXTT6=
EXTT7=
EXTT8=
EXTT9=
EXTT10=
EXTT11=
EXTT12=
EXTT13=
EXTT14=
EXTT15=
PLAYORDER=
